<svg width="164" height="164" viewBox="0 0 164 164" fill="none" xmlns="http://www.w3.org/2000/svg">
<path d="M81.9997 95.6663V109.333C71.1258 109.333 60.6973 113.653 53.0083 121.342C45.3193 129.031 40.9997 139.459 40.9997 150.333H27.333C27.333 135.835 33.0925 121.93 43.3445 111.678C53.5965 101.426 67.5012 95.6663 81.9997 95.6663V95.6663ZM81.9997 88.833C59.3472 88.833 40.9997 70.4855 40.9997 47.833C40.9997 25.1805 59.3472 6.83301 81.9997 6.83301C104.652 6.83301 123 25.1805 123 47.833C123 70.4855 104.652 88.833 81.9997 88.833ZM81.9997 75.1663C97.1013 75.1663 109.333 62.9347 109.333 47.833C109.333 32.7313 97.1013 20.4997 81.9997 20.4997C66.898 20.4997 54.6663 32.7313 54.6663 47.833C54.6663 62.9347 66.898 75.1663 81.9997 75.1663ZM143.5 116.166H150.333V150.333H95.6663V116.166H102.5V109.333C102.5 103.896 104.659 98.6818 108.504 94.8373C112.348 90.9928 117.563 88.833 123 88.833C128.437 88.833 133.651 90.9928 137.495 94.8373C141.34 98.6818 143.5 103.896 143.5 109.333V116.166ZM129.833 116.166V109.333C129.833 107.521 129.113 105.783 127.832 104.501C126.55 103.22 124.812 102.5 123 102.5C121.187 102.5 119.449 103.22 118.168 104.501C116.886 105.783 116.166 107.521 116.166 109.333V116.166H129.833Z" fill="#04163B"/>
</svg>
