<svg width="162" height="162" viewBox="0 0 162 162" fill="none" xmlns="http://www.w3.org/2000/svg">
<path d="M109.523 153.865L126.807 136.364C128.152 135.021 129.219 133.426 129.947 131.67C130.674 129.914 131.049 128.032 131.049 126.131C131.049 124.23 130.674 122.348 129.947 120.593C129.219 118.837 128.152 117.242 126.807 115.898L116.972 106.28C115.629 104.935 114.034 103.869 112.278 103.141C110.522 102.413 108.64 102.038 106.739 102.038C104.838 102.038 102.956 102.413 101.201 103.141C99.4447 103.869 97.8496 104.935 96.5063 106.28L89.9978 112.789C73.243 102.745 59.2121 88.7389 49.1387 72.0019V72.0019L55.6472 65.4934C56.992 64.1501 58.0588 62.555 58.7866 60.7991C59.5145 59.0433 59.8891 57.1612 59.8891 55.2605C59.8891 53.3598 59.5145 51.4777 58.7866 49.7219C58.0588 47.9661 56.992 46.3709 55.6472 45.0277L45.8844 35.1202C44.5363 33.7316 42.9232 32.6276 41.1406 31.8738C39.3581 31.1199 37.4423 30.7314 35.5069 30.7314C33.5715 30.7314 31.6558 31.1199 29.8732 31.8738C28.0907 32.6276 26.4776 33.7316 25.1294 35.1202L8.13493 52.4763C6.95039 53.6531 6.20956 55.2036 6.0382 56.8645C5.86683 58.5254 6.27549 60.1944 7.19481 61.5883V61.5883C31.7767 98.5357 63.464 130.223 100.411 154.805V154.805C101.805 155.724 103.474 156.133 105.135 155.962C106.796 155.79 108.347 155.049 109.523 153.865V153.865Z" stroke="#04163B" stroke-width="10.8475" stroke-linecap="round" stroke-linejoin="round"/>
<path d="M54.4902 14.1485C67.3997 7.22966 82.1825 4.61767 96.6812 6.6937C111.18 8.76973 124.636 15.4251 135.085 25.6886C145.534 35.952 152.43 49.2863 154.765 63.7455C157.101 78.2047 154.755 93.032 148.068 106.063" stroke="#04163B" stroke-width="10.8475" stroke-linecap="round" stroke-linejoin="round"/>
<path d="M90.2168 32.8076V73.3051H119.144" stroke="#04163B" stroke-width="10.8475" stroke-linecap="round" stroke-linejoin="round"/>
</svg>
