<svg width="140" height="139" viewBox="0 0 140 139" fill="none" xmlns="http://www.w3.org/2000/svg">
<path d="M61.8026 137.042C65.6805 137.678 69.6037 137.998 73.5334 138C86.6976 137.971 99.6057 134.36 110.875 127.555C122.139 120.753 131.342 111.014 137.497 99.3835C138.221 97.9035 138.518 96.2509 138.356 94.6112C138.193 92.9665 137.574 91.4001 136.568 90.0884C135.563 88.7767 134.211 87.772 132.665 87.1875C131.121 86.6038 129.445 86.4624 127.826 86.7789C116.246 89.2342 104.215 88.4806 93.0313 84.5994L93.0284 84.5985C78.5009 79.5076 66.2794 69.378 58.5812 56.0475C51.0513 43.0085 48.337 27.752 50.8906 12.9347L46.9002 12.2209L47.153 10.2395L51.4707 10.5716M61.8026 137.042C61.8026 137.042 61.8027 137.042 61.8027 137.042L61.6408 138.029L61.8026 137.042ZM61.8026 137.042C42.8315 133.929 25.8717 123.413 14.648 107.805C3.42425 92.1965 -1.14556 72.7715 1.94221 53.7962L1.94264 53.7935C3.67034 42.9921 7.83425 32.7258 14.1188 23.7726C20.4033 14.8194 28.6435 7.41436 38.2148 2.11867L38.2184 2.11664C39.6884 1.2953 41.3634 0.913442 43.0441 1.01647C44.7248 1.11951 46.3406 1.7031 47.6992 2.69784L47.7121 2.70727L47.7253 2.71628C49.112 3.66513 50.1931 4.99652 50.8371 6.54851C51.3664 7.82412 51.5817 9.20358 51.4707 10.5716M51.4707 10.5716L52.4124 10.6441L52.3721 11.1679M51.4707 10.5716C51.4592 10.7141 51.4441 10.8565 51.4254 10.9986L47.2523 10.2522L47.0763 11.2366L46.9996 12.2336L52.3721 11.1679M52.3721 11.1679L52.4108 11.1748L52.3721 11.1679ZM43.0833 10.5693L43.4747 8.45793L41.6068 9.51708C33.7465 13.974 26.9121 20.0353 21.548 27.3069C16.1839 34.5785 12.4102 42.8975 10.4722 51.7232C8.53419 60.549 8.47527 69.6837 10.2993 78.5337C12.1232 87.3834 15.7891 95.7502 21.0587 103.09C27.4104 111.969 35.9161 119.085 45.7759 123.771C55.6359 128.457 66.5258 130.558 77.4213 129.875C88.3168 129.193 98.8596 125.75 108.058 119.871C117.257 113.992 124.808 105.869 130.003 96.2677L131.018 94.3909L128.926 94.8115C116.088 97.3922 102.794 96.5108 90.4091 92.2576C74.0721 86.5283 60.3222 75.1457 51.643 60.1658C42.9632 45.1846 39.9271 27.5932 43.0833 10.5693Z" fill="#04163B" stroke="#04163B" stroke-width="2"/>
</svg>
