<svg width="2832" height="1549" viewBox="0 0 2832 1549" fill="none" xmlns="http://www.w3.org/2000/svg">
<rect x="2.5" y="0.5" width="2808" height="1546" fill="#0C003A" stroke="#999999"/>
<path d="M2794.98 751C2849.28 772.773 1566.5 971.349 2 1251.97L2794.98 751ZM2794.98 751L1022.53 521L126 1547" stroke="#0057FF" stroke-width="5"/>
<path d="M10.4052 6.7216C-15.7787 -53.5146 419.624 543.278 2681.74 1522.78L10.4052 6.7216ZM10.4052 6.7216L1252.7 1545.73L2785.07 1417.31" stroke="#0057FF" stroke-width="5"/>
<path d="M344.042 1544.76C286.565 1533.86 966.014 1518.58 2830.27 358.072L344.042 1544.76ZM344.042 1544.76L2123.69 1410.53L2811.46 214" stroke="#0C6AE7" stroke-width="5"/>
<path d="M2807.82 230.531C2864.91 252.304 2160.81 136.272 2 914.866L2807.82 230.531ZM2807.82 230.531L944.499 19L2 1045" stroke="#0C6AE7" stroke-width="5"/>
</svg>
