<svg width="2835" height="1563" viewBox="0 0 2835 1563" fill="none" xmlns="http://www.w3.org/2000/svg">
<rect x="3.5" y="8.5" width="2813" height="1551" fill="#0C003A" stroke="#0C003A"/>
<path d="M2820 749.5C2874 771.167 2038.5 656.163 7 1403L2820 749.5ZM2820 749.5L1057.5 539L166 1560" stroke="#D9E3EB" stroke-width="5"/>
<path d="M66.4555 6.8828C40.4136 -53.0268 482.029 562.932 2731.88 1537.12L66.4555 6.8828ZM66.4555 6.8828L1310.59 1559.94L2834.65 1432.22" stroke="#D9E3EB" stroke-width="5"/>
<path d="M349.319 1512.46C290.807 1497.07 976.784 1505.54 2814.71 182.186L349.319 1512.46ZM349.319 1512.46L2142.34 1421.25L2790 7.99954" stroke="#D9E3EB" stroke-width="5"/>
<path d="M2813.82 238.911C2871.01 262.678 2165.66 136.016 3 985.943L2813.82 238.911ZM2813.82 238.911L947.177 8L3 1128" stroke="#D9E3EB" stroke-width="5"/>
</svg>
