<svg width="495" height="495" viewBox="0 0 495 495" fill="none" xmlns="http://www.w3.org/2000/svg">
<path d="M207.5 247.5C207.5 225.444 225.444 207.5 247.5 207.5V0C111.028 0 0 111.028 0 247.5C0 383.972 111.028 495 247.5 495V287.5C225.444 287.5 207.5 269.556 207.5 247.5ZM137.5 287.5C115.444 287.5 97.5 269.556 97.5 247.5C97.5 225.444 115.444 207.5 137.5 207.5C159.556 207.5 177.5 225.444 177.5 247.5C177.5 269.556 159.556 287.5 137.5 287.5Z" fill="#E4EEFA"/>
<path d="M247.5 0V207.5C269.556 207.5 287.5 225.444 287.5 247.5C287.5 269.556 269.556 287.5 247.5 287.5V495C383.972 495 495 383.972 495 247.5C495 111.028 383.972 0 247.5 0ZM357.5 287.5C335.444 287.5 317.5 269.556 317.5 247.5C317.5 225.444 335.444 207.5 357.5 207.5C379.556 207.5 397.5 225.444 397.5 247.5C397.5 269.556 379.556 287.5 357.5 287.5Z" fill="#F7F7F7"/>
<path d="M317.5 247.5C317.5 269.556 335.444 287.5 357.5 287.5V207.5C335.444 207.5 317.5 225.444 317.5 247.5Z" fill="#2488FF"/>
<path d="M357.5 207.5V287.5C379.556 287.5 397.5 269.556 397.5 247.5C397.5 225.444 379.556 207.5 357.5 207.5Z" fill="#005ECE"/>
<path d="M207.5 247.5C207.5 269.556 225.444 287.5 247.5 287.5V207.5C225.444 207.5 207.5 225.444 207.5 247.5Z" fill="#2488FF"/>
<path d="M287.5 247.5C287.5 225.444 269.556 207.5 247.5 207.5V287.5C269.556 287.5 287.5 269.556 287.5 247.5Z" fill="#005ECE"/>
<path d="M97.5 247.5C97.5 269.556 115.444 287.5 137.5 287.5V207.5C115.444 207.5 97.5 225.444 97.5 247.5Z" fill="#2488FF"/>
<path d="M137.5 207.5V287.5C159.556 287.5 177.5 269.556 177.5 247.5C177.5 225.444 159.556 207.5 137.5 207.5Z" fill="#005ECE"/>
</svg>
