<svg width="116" height="164" viewBox="0 0 116 164" fill="none" xmlns="http://www.w3.org/2000/svg">
<path d="M115.112 57.6372C115.112 24.8535 87.5574 -1.6618 54.4384 0.0812988C24.437 1.8244 0.703945 26.5966 0 56.5981C0 71.582 5.56452 85.5269 15.3527 96.3542C31.3423 113.484 29.2975 133.328 29.2975 133.328C29.2975 137.15 32.4485 140.301 36.2699 140.301H78.8084C82.6298 140.301 85.7808 137.15 86.116 133.328C86.116 133.328 83.7695 113.986 99.7256 96.7229C109.514 86.2308 115.112 72.286 115.112 57.6372ZM72.2047 126.691H42.9071C42.2032 112.377 35.9347 98.4325 25.8113 87.6387C18.135 79.2584 14.3136 68.4646 14.3136 57.302C14.6488 34.2729 32.4485 15.4675 55.4776 14.0596C80.585 12.6518 101.502 32.8986 101.502 57.6372C101.502 68.4646 97.3121 79.2584 89.6357 87.27C79.1771 98.4325 72.9086 112.377 72.2047 126.691Z" fill="#04163B"/>
<path d="M69.7573 150.056H44.9851C41.1637 150.056 38.0127 153.207 38.0127 157.028C38.0127 160.849 41.1637 164 44.9851 164H69.7573C73.5787 164 76.7297 160.849 76.7297 157.028C76.7297 153.207 73.6122 150.056 69.7573 150.056Z" fill="#04163B"/>
</svg>
