<svg width="2806" height="1563" viewBox="0 0 2806 1563" fill="none" xmlns="http://www.w3.org/2000/svg">
<rect x="0.5" y="21.5" width="2793" height="1538" fill="#CDE2F1" fill-opacity="0.51" stroke="#999999"/>
<path d="M2791 749.5C2845 771.167 2179 655.7 137 1430.5L2791 749.5ZM2791 749.5L1028.5 539L137 1560" stroke="#103B9B" stroke-width="5"/>
<path d="M37.4555 6.8828C11.4136 -53.0268 453.029 562.932 2702.88 1537.12L37.4555 6.8828ZM37.4555 6.8828L1281.59 1559.94L2805.65 1432.22" stroke="#103B9B" stroke-width="5"/>
<path d="M329.158 1557.54C271.992 1546.7 947.757 1531.5 2801.91 377.291L329.158 1557.54ZM329.158 1557.54L2099.16 1424.04L2783.19 234" stroke="#103B9B" stroke-width="5"/>
<path d="M2682 249.5C2736 271.167 2070 155.7 28 930.5L2682 249.5ZM2682 249.5L919.5 39L28 1060" stroke="#103B9B" stroke-width="5"/>
</svg>
