<svg width="427" height="427" viewBox="0 0 427 427" fill="none" xmlns="http://www.w3.org/2000/svg">
<path d="M227.461 175.8C235.36 155.205 258.541 144.877 279.135 152.775C286.87 155.742 295.546 151.876 298.512 144.142C301.479 136.407 297.613 127.732 289.879 124.765C253.839 110.942 213.273 129.017 199.45 165.057C196.484 172.791 200.349 181.467 208.084 184.434C215.818 187.4 224.494 183.535 227.461 175.8Z" fill="white"/>
<path d="M25.4815 313.181L157.602 254.314C171.466 277.524 192.901 296.43 220.044 306.841C284.401 331.525 356.841 299.249 381.525 234.891C406.209 170.535 373.933 98.0949 309.577 73.411C245.22 48.7271 172.78 81.0032 148.096 145.36C137.686 172.502 137.407 201.083 145.393 226.911L13.2726 285.78C9.48834 287.464 6.74664 290.524 5.37185 294.109C3.99706 297.693 3.98919 301.802 5.67632 305.585C9.04706 313.152 17.9151 316.553 25.4815 313.181ZM298.833 101.421C347.745 120.181 372.275 175.236 353.515 224.148C334.755 273.06 279.7 297.591 230.788 278.831C181.876 260.071 157.347 205.015 176.107 156.103C194.867 107.191 249.921 82.6613 298.833 101.421Z" fill="white"/>
</svg>
